<svg width="500" height="500" viewBox="0 0 500 500" fill="none" xmlns="http://www.w3.org/2000/svg">
  <g clip-path="url(#clip0_7_2)">
    <path
      d="M40.8831 465.78C77.7205 500 135.147 500 250 500C364.853 500 422.279 500 459.117 465.78C461.419 463.641 463.641 461.419 465.78 459.117C500 422.279 500 364.853 500 250C500 135.147 500 77.7205 465.78 40.8831C463.641 38.5811 461.419 36.3587 459.117 34.2203C422.279 0 364.853 0 250 0C135.147 0 77.7205 0 40.8831 34.2203C38.5811 36.3587 36.3587 38.5811 34.2203 40.8831C0 77.7205 0 135.147 0 250C0 364.853 0 422.279 34.2203 459.117C36.3587 461.419 38.5811 463.641 40.8831 465.78Z"
      fill="#0D0D0D" />
    <path
      d="M246.042 81.375C246.042 76.7448 244.202 72.3042 240.928 69.0301C237.654 65.756 233.214 63.9167 228.583 63.9167H145.656C130.608 63.9167 116.176 69.8946 105.535 80.5353C94.8946 91.1761 88.9167 105.608 88.9167 120.656V203.583C88.9167 208.214 90.756 212.654 94.0301 215.928C97.3042 219.202 101.745 221.042 106.375 221.042C111.005 221.042 115.446 219.202 118.72 215.928C121.994 212.654 123.833 208.214 123.833 203.583V120.656C123.833 108.61 133.61 98.8334 145.656 98.8334H228.583C233.214 98.8334 237.654 96.994 240.928 93.7199C244.202 90.4459 246.042 86.0053 246.042 81.375ZM298.417 63.9167C293.786 63.9167 289.346 65.756 286.072 69.0301C282.798 72.3042 280.958 76.7448 280.958 81.375C280.958 86.0053 282.798 90.4459 286.072 93.7199C289.346 96.994 293.786 98.8334 298.417 98.8334H381.344C393.39 98.8334 403.167 108.61 403.167 120.656V203.583C403.167 208.214 405.006 212.654 408.28 215.928C411.554 219.202 415.995 221.042 420.625 221.042C425.255 221.042 429.696 219.202 432.97 215.928C436.244 212.654 438.083 208.214 438.083 203.583V120.656C438.083 113.205 436.616 105.827 433.764 98.943C430.913 92.059 426.733 85.8041 421.465 80.5353C416.196 75.2666 409.941 71.0872 403.057 68.2357C396.173 65.3843 388.795 63.9167 381.344 63.9167H298.417ZM298.417 413.083C293.786 413.083 289.346 411.244 286.072 407.97C282.798 404.696 280.958 400.255 280.958 395.625C280.958 390.995 282.798 386.554 286.072 383.28C289.346 380.006 293.786 378.167 298.417 378.167H381.344C393.39 378.167 403.167 368.39 403.167 356.344V273.417C403.167 268.786 405.006 264.346 408.28 261.072C411.554 257.798 415.995 255.958 420.625 255.958C425.255 255.958 429.696 257.798 432.97 261.072C436.244 264.346 438.083 268.786 438.083 273.417V356.344C438.083 363.795 436.616 371.173 433.764 378.057C430.913 384.941 426.733 391.196 421.465 396.465C416.196 401.733 409.941 405.913 403.057 408.764C396.173 411.616 388.795 413.083 381.344 413.083H298.417Z"
      fill="white" />
    <path
      d="M281.708 286.946C270.883 279.3 257.709 275.71 244.498 276.809C231.235 277.912 218.789 283.671 209.362 293.066L209.359 293.069L177.904 324.389C173.431 328.9 167.525 331.712 161.201 332.338C154.911 332.96 148.603 331.379 143.35 327.87C137.082 323.822 129.612 322.055 122.195 322.863C114.857 323.663 108.013 326.938 102.786 332.144L82.1816 356.059C82.1911 358.133 82.3309 360.202 82.5996 362.252L105.701 335.254L105.902 335.019L106.121 334.8C110.61 330.307 116.507 327.494 122.823 326.829L122.906 326.82L122.989 326.813C129.233 326.288 135.471 327.874 140.706 331.315H140.707C146.875 335.321 154.219 337.117 161.539 336.408C168.844 335.701 175.694 332.542 180.975 327.446L212.368 296.053C221 287.417 232.395 282.093 244.558 281.014C256.341 279.968 268.117 282.972 277.949 289.509L278.895 290.152L279.062 290.268L279.222 290.393L295.75 303.205V297.916L281.708 286.946ZM135.056 237.35C129.399 237.349 123.914 239.304 119.532 242.884C115.135 246.476 112.119 251.481 111 257.048C109.881 262.614 110.727 268.398 113.395 273.41C116.062 278.423 120.385 282.355 125.627 284.536C128.979 285.931 132.6 286.565 136.227 286.392C139.854 286.218 143.398 285.241 146.602 283.532C149.805 281.823 152.59 279.424 154.754 276.509C156.918 273.593 158.409 270.233 159.117 266.672C159.826 263.11 159.735 259.436 158.852 255.914C157.968 252.392 156.313 249.11 154.007 246.305C151.701 243.5 148.801 241.241 145.517 239.692C142.245 238.15 138.672 237.35 135.056 237.35ZM332 356.264C331.961 378.957 322.929 400.71 306.882 416.757C290.835 432.804 269.082 441.836 246.389 441.875H131.611C108.918 441.836 87.1648 432.804 71.1182 416.757C55.0715 400.71 46.0394 378.957 46 356.264V261.736L46.0088 260.673C46.3238 238.364 55.3223 217.039 71.1182 201.243C87.1648 185.196 108.918 176.164 131.611 176.125H246.389L247.452 176.134C269.761 176.449 291.086 185.447 306.882 201.243C322.929 217.29 331.961 239.043 332 261.736V356.264Z"
      fill="white" stroke="#0D0D0D" stroke-width="16" />
    <path
      d="M147.285 261.885C147.285 265.143 145.991 268.268 143.687 270.572C141.383 272.876 138.258 274.17 135 274.17C131.742 274.17 128.617 272.876 126.313 270.572C124.009 268.268 122.715 265.143 122.715 261.885C122.715 258.627 124.009 255.502 126.313 253.198C128.617 250.894 131.742 249.6 135 249.6C138.258 249.6 141.383 250.894 143.687 253.198C145.991 255.502 147.285 258.627 147.285 261.885Z"
      fill="white" />
  </g>
  <defs>
    <clipPath id="clip0_7_2">
      <rect width="500" height="500" fill="white" />
    </clipPath>
  </defs>
</svg>